<?xml version="1.0" standalone="no"?>
<!DOCTYPE svg PUBLIC "-//W3C//DTD SVG 20010904//EN"
 "http://www.w3.org/TR/2001/REC-SVG-20010904/DTD/svg10.dtd">
<svg version="1.0" xmlns="http://www.w3.org/2000/svg"
 width="213.000000pt" height="213.000000pt" viewBox="0 0 213.000000 213.000000"
 preserveAspectRatio="xMidYMid meet">

<g transform="translate(0.000000,213.000000) scale(0.100000,-0.100000)"
fill="#000000" stroke="none">
<path d="M932 2080 c-418 -59 -760 -364 -869 -778 -22 -84 -26 -117 -26 -252
0 -135 4 -168 26 -252 50 -190 147 -357 285 -490 135 -131 287 -217 470 -265
84 -22 117 -26 252 -26 135 0 168 4 252 26 373 99 656 382 755 755 22 84 26
117 26 252 0 135 -4 168 -26 252 -120 452 -507 766 -967 783 -63 2 -143 0
-178 -5z m262 -645 c69 -21 114 -59 142 -119 33 -71 33 -155 -1 -223 -48 -96
-138 -133 -327 -133 l-107 0 -3 -157 -3 -158 -57 -3 -58 -3 0 406 0 405 183 0
c132 0 195 -4 231 -15z"/>
<path d="M900 1211 l0 -151 121 0 c138 0 173 11 204 63 24 40 25 120 2 164
-29 54 -66 67 -204 71 l-123 4 0 -151z"/>
</g>
</svg>
